<?xml version="1.0" encoding="utf-8"?>
<!-- Generator: Adobe Illustrator 25.4.1, SVG Export Plug-In . SVG Version: 6.00 Build 0)  -->
<svg version="1.1" id="Capa_1" xmlns="http://www.w3.org/2000/svg" xmlns:xlink="http://www.w3.org/1999/xlink" x="0px" y="0px"
	 viewBox="0 0 10 10" style="enable-background:new 0 0 10 10;" xml:space="preserve">
<style type="text/css">
	.st0{clip-path:url(#SVGID_00000132783625205454528290000005386242209398055099_);fill:#D80027;}
	.st1{clip-path:url(#SVGID_00000132783625205454528290000005386242209398055099_);fill:#0052B4;}
	.st2{clip-path:url(#SVGID_00000132783625205454528290000005386242209398055099_);fill:#FFFFFF;}
	.st3{fill:#1D1D1B;}
</style>
<g>
	<g>
		<defs>
			<circle id="SVGID_1_" cx="5" cy="5" r="5"/>
		</defs>
		<clipPath id="SVGID_00000109004691453252477430000012686557664144407691_">
			<use xlink:href="#SVGID_1_"  style="overflow:visible;"/>
		</clipPath>
		
			<rect x="-0.1" y="5" style="clip-path:url(#SVGID_00000109004691453252477430000012686557664144407691_);fill:#D80027;" width="10.3" height="5.1"/>
		
			<rect x="-0.1" y="-0.1" style="clip-path:url(#SVGID_00000109004691453252477430000012686557664144407691_);fill:#0052B4;" width="5.1" height="5.1"/>
		
			<rect x="5" y="-0.1" style="clip-path:url(#SVGID_00000109004691453252477430000012686557664144407691_);fill:#FFFFFF;" width="5.1" height="5.1"/>
		<polygon style="clip-path:url(#SVGID_00000109004691453252477430000012686557664144407691_);fill:#FFFFFF;" points="3.5,3.4 
			4.3,2.7 3.3,2.7 3,1.7 2.6,2.7 1.6,2.7 2.4,3.4 2.1,4.4 3,3.7 3.8,4.4 		"/>
	</g>
	<path class="st3" d="M5,10c-2.8,0-5-2.2-5-5c0-2.8,2.2-5,5-5c2.8,0,5,2.2,5,5C10,7.8,7.8,10,5,10z M5,0C2.3,0,0,2.3,0,5s2.2,5,5,5
		s5-2.2,5-5S7.7,0,5,0z"/>
</g>
</svg>
