<?xml version="1.0" encoding="utf-8"?>
<!-- Generator: Adobe Illustrator 25.4.1, SVG Export Plug-In . SVG Version: 6.00 Build 0)  -->
<svg version="1.1" id="Capa_1" xmlns="http://www.w3.org/2000/svg" xmlns:xlink="http://www.w3.org/1999/xlink" x="0px" y="0px"
	 viewBox="0 0 141.7 137.7" style="enable-background:new 0 0 141.7 137.7;" xml:space="preserve">
<style type="text/css">
	.st0{fill:#00005B;}
	.st1{fill:#FFFFFF;}
</style>
<path class="st0" d="M141,19c-2.8-11.4-12.6-19.2-24.5-19.2c-30.5-0.1-60.9-0.1-91.4,0c-12.9,0-23,9.1-24.9,21.7
	c0,0.2-0.2,0.4-0.2,0.6c0,31.2,0,62.4,0,93.6c0.2,1,0.4,2,0.7,3.1c2.8,11.4,12.5,19.2,24.5,19.2c30.5,0.1,60.9,0.1,91.4,0
	c12.9,0,23-9,24.9-21.7c0-0.3,0.2-0.6,0.2-0.9c0-31,0-62,0-93C141.5,21.2,141.3,20.1,141,19z"/>
<g>
	<path class="st1" d="M43,80.4c0,6.1,0,12,0,17.8c0,1.4-0.3,1.9-1.8,1.8c-2.8-0.1-5.7,0-8.6,0c-2.6,0-2.5,0.4-2.5-2.4
		c0-12.7,0-25.3,0-38c0-6.7,0-13.3,0-20c0-1.2,0.3-1.7,1.6-1.7c5.5,0,11-0.3,16.6-0.3c4.5-0.1,9,0.3,13.3,2
		c9,3.6,13.8,11.3,13.1,21.3c-0.6,9.2-6.5,15.9-15.9,18.3c-4.1,1.1-8.4,1.3-12.6,1.2C45.3,80.4,44.2,80.4,43,80.4z M43.1,49.4
		c0,6.7,0,13.2,0,19.8c5,0.3,9.9,0.5,14.4-2c3.8-2.1,4.7-5.7,4.3-9.7c-0.4-3.6-2.4-6-5.9-7.3C51.8,48.7,47.5,49.4,43.1,49.4z"/>
	<path class="st1" d="M95.4,58.6c2.1-1.5,4.2-3.2,6.4-4.5c2.4-1.5,5.2-2.1,8-2.2c1.2-0.1,1.6,0.4,1.6,1.6c-0.1,3.3-0.1,6.6,0,9.9
		c0,1.1-0.4,1.6-1.5,1.5c-3.3-0.1-6.5,0.5-9.6,1.7c-0.6,0.2-1.2,0.5-1.8,0.8c-1.7,0.8-2.5,1.9-2.5,4.1c0.2,8.9,0.1,17.8,0.1,26.7
		c0,2,0,2-2.1,2c-3.2,0-6.4-0.1-9.5,0c-1.3,0-1.7-0.4-1.7-1.7c0-8.9,0.1-17.8,0-26.7c0-5.8-0.2-11.7-0.3-17.5c0-1,0.2-1.4,1.3-1.4
		c3,0.1,6,0,9,0c1.2,0,1.8,0.5,2,1.6C95,55.8,95.2,57.3,95.4,58.6z"/>
</g>
<g>
	
		<image style="overflow:visible;" width="106" height="155" xlink:href="39BEAA24.jpg"  transform="matrix(1 0 0 1 17.8661 -8049.5356)">
	</image>
</g>
</svg>
