<?xml version="1.0" encoding="utf-8"?>
<!-- Generator: Adobe Illustrator 25.4.1, SVG Export Plug-In . SVG Version: 6.00 Build 0)  -->
<svg version="1.1" id="Capa_1" xmlns="http://www.w3.org/2000/svg" xmlns:xlink="http://www.w3.org/1999/xlink" x="0px" y="0px"
	 viewBox="0 0 41 39.8" style="enable-background:new 0 0 41 39.8;" xml:space="preserve">
<style type="text/css">
	.st0{fill:#00005B;}
	.st1{fill:#FFFFFF;}
</style>
<path class="st0" d="M40.8,5.5c-0.8-3.3-3.6-5.6-7.1-5.6c-8.8,0-17.6,0-26.4,0c-3.7,0-6.7,2.6-7.2,6.3c0,0.1,0,0.1-0.1,0.2
	c0,9,0,18,0,27.1c0.1,0.3,0.1,0.6,0.2,0.9c0.8,3.3,3.6,5.6,7.1,5.6c8.8,0,17.6,0,26.4,0c3.7,0,6.6-2.6,7.2-6.3c0-0.1,0-0.2,0.1-0.3
	c0-9,0-17.9,0-26.9C40.9,6.1,40.9,5.8,40.8,5.5z"/>
<g>
	<path class="st1" d="M12.5,23.3c0,1.8,0,3.5,0,5.2c0,0.4-0.1,0.5-0.5,0.5c-0.8,0-1.7,0-2.5,0c-0.8,0-0.7,0.1-0.7-0.7
		c0-3.7,0-7.3,0-11c0-1.9,0-3.9,0-5.8c0-0.4,0.1-0.5,0.5-0.5c1.6,0,3.2-0.1,4.8-0.1c1.3,0,2.6,0.1,3.8,0.6c2.6,1,4,3.3,3.8,6.1
		c-0.2,2.7-1.9,4.6-4.6,5.3c-1.2,0.3-2.4,0.4-3.6,0.3C13.1,23.3,12.8,23.3,12.5,23.3z M12.5,14.3c0,1.9,0,3.8,0,5.7
		c1.4,0.1,2.9,0.1,4.2-0.6c1.1-0.6,1.4-1.6,1.2-2.8c-0.1-1-0.7-1.7-1.7-2.1C15,14.1,13.7,14.3,12.5,14.3z"/>
	<path class="st1" d="M27.6,16.9c0.6-0.4,1.2-0.9,1.9-1.3c0.7-0.4,1.5-0.6,2.3-0.6c0.4,0,0.5,0.1,0.5,0.5c0,1,0,1.9,0,2.9
		c0,0.3-0.1,0.5-0.4,0.4c-1,0-1.9,0.1-2.8,0.5c-0.2,0.1-0.3,0.1-0.5,0.2c-0.5,0.2-0.7,0.6-0.7,1.2c0,2.6,0,5.1,0,7.7
		c0,0.6,0,0.6-0.6,0.6c-0.9,0-1.8,0-2.8,0c-0.4,0-0.5-0.1-0.5-0.5c0-2.6,0-5.1,0-7.7c0-1.7-0.1-3.4-0.1-5.1c0-0.3,0.1-0.4,0.4-0.4
		c0.9,0,1.7,0,2.6,0c0.3,0,0.5,0.1,0.6,0.5C27.5,16.1,27.5,16.6,27.6,16.9z"/>
</g>
<g>
	
		<image style="overflow:visible;" width="106" height="155" xlink:href="39BEAA23.jpg"  transform="matrix(1 0 0 1 -32.5 -8098.48)">
	</image>
</g>
</svg>
