<?xml version="1.0" encoding="utf-8"?>
<!-- Generator: Adobe Illustrator 25.4.1, SVG Export Plug-In . SVG Version: 6.00 Build 0)  -->
<svg version="1.1" id="Capa_1" xmlns="http://www.w3.org/2000/svg" xmlns:xlink="http://www.w3.org/1999/xlink" x="0px" y="0px"
	 viewBox="0 0 51 39.8" style="enable-background:new 0 0 51 39.8;" xml:space="preserve">
<style type="text/css">
	.st0{fill:#00618A;}
	.st1{fill:#E48E00;}
	.st2{fill-rule:evenodd;clip-rule:evenodd;fill:#00618A;}
	.st3{fill-rule:evenodd;clip-rule:evenodd;fill:#E48E00;}
</style>
<g>
	<g transform="translate(0.738281, 121.593)">
		<path class="st0" d="M-0.7-90.8h1.7v-6.6l2.6,5.8c0.3,0.7,0.7,0.9,1.6,0.9c0.8,0,1.2-0.2,1.5-0.9l2.6-5.8v6.6h1.7v-6.6
			c0-0.6-0.3-1-0.8-1.1C8.8-99,8-98.6,7.6-97.8L5-92.1l-2.5-5.7c-0.4-0.9-1.2-1.2-2.5-0.8c-0.5,0.2-0.8,0.5-0.8,1.1V-90.8z"/>
	</g>
	<g transform="translate(100.444, 142.416)">
		<path class="st0" d="M-87.4-117.1h1.7v3.7c0,0.2,0.1,0.7,1,0.7c0.5,0,3.6,0,3.7,0v-4.4h1.7c0,0,0,5.9,0,6c0,1.5-1.8,1.8-2.7,1.8
			h-5.3v-1.1c0,0,5.3,0,5.3,0c1.1-0.1,1-0.7,1-0.8v-0.4h-3.6c-1.7,0-2.7-0.7-2.7-1.6C-87.4-113.4-87.4-117-87.4-117.1z"/>
	</g>
	<g transform="translate(171.496, 124.557)">
		<path class="st1" d="M-149.1-93.8h4.8c0.6,0,1.1-0.1,1.6-0.3c0.7-0.3,1.1-0.8,1.1-1.4v-1.2c0-0.5-0.4-0.9-1.2-1.2
			c-0.4-0.2-0.9-0.2-1.4-0.2h-2c-0.7,0-1-0.2-1.1-0.7c0-0.1,0-0.1,0-0.2v-0.8c0,0,0-0.1,0-0.1c0.1-0.3,0.3-0.4,0.9-0.5
			c0,0,0.1,0,0.2,0h4.8v-1.1h-4.7c-0.7,0-1,0-1.4,0.1c-1,0.3-1.4,0.8-1.4,1.7v1c0,0.8,0.9,1.4,2.3,1.6c0.2,0,0.3,0,0.5,0h1.7
			c0.1,0,0.1,0,0.2,0c0.5,0,0.8,0.1,0.9,0.3c0.1,0.1,0.1,0.2,0.1,0.3v1c0,0.1-0.1,0.3-0.2,0.4c-0.1,0.1-0.4,0.2-0.7,0.2
			c-0.1,0-0.1,0-0.2,0h-4.6V-93.8z"/>
	</g>
	<g transform="translate(308.656, 124.557)">
		<path class="st1" d="M-268.4-95.8c0,1.2,0.9,1.8,2.6,1.9c0.2,0,0.3,0,0.5,0h4.4v-1.1h-4.4c-1,0-1.4-0.2-1.4-0.8v-5.8h-1.7V-95.8z"
			/>
	</g>
	<g transform="translate(236.74, 124.666)">
		<path class="st1" d="M-205.8-95.8v-4c0-1,0.7-1.6,2.1-1.8c0.1,0,0.3,0,0.5,0h3.2c0.2,0,0.3,0,0.5,0c1.4,0.2,2.1,0.8,2.1,1.8v4
			c0,0.8-0.3,1.3-1,1.6l1.7,1.5h-2l-1.3-1.2l-1.3,0.1h-1.8c-0.3,0-0.6,0-1-0.1C-205.3-94.3-205.8-94.9-205.8-95.8z M-204-95.9
			c0,0.1,0,0.1,0,0.2c0.1,0.5,0.5,0.7,1.2,0.7h1.5l-1.4-1.3h2l1.2,1.1c0.2-0.1,0.4-0.3,0.4-0.5c0-0.1,0-0.1,0-0.2v-3.8
			c0,0,0-0.1,0-0.2c-0.1-0.4-0.5-0.7-1.2-0.7h-2.5c-0.7,0-1.2,0.3-1.2,0.8V-95.9z"/>
	</g>
	<g transform="translate(241.59, -4.64258)">
		<path class="st0" d="M-192.4,25.8c-1,0-1.8,0.1-2.5,0.4c-0.2,0.1-0.5,0.1-0.5,0.3c0.1,0.1,0.1,0.3,0.2,0.4
			c0.2,0.3,0.4,0.6,0.7,0.8c0.3,0.2,0.5,0.4,0.8,0.6c0.5,0.3,1.1,0.5,1.6,0.8c0.3,0.2,0.6,0.4,0.9,0.6c0.1,0.1,0.2,0.3,0.4,0.3
			c0,0,0,0,0,0c-0.1-0.1-0.1-0.3-0.2-0.4c-0.1-0.1-0.3-0.3-0.4-0.4c-0.4-0.5-0.8-0.9-1.4-1.3c-0.4-0.3-1.3-0.7-1.5-1.1c0,0,0,0,0,0
			c0.3,0,0.6-0.1,0.9-0.2c0.4-0.1,0.8-0.1,1.3-0.2c0.2-0.1,0.4-0.1,0.6-0.2c0,0,0-0.1,0-0.1c-0.2-0.2-0.4-0.5-0.6-0.8
			c-0.7-0.6-1.4-1.1-2.1-1.6c-0.4-0.3-0.9-0.4-1.4-0.6c-0.1-0.1-0.4-0.1-0.5-0.2c-0.2-0.3-0.4-0.7-0.5-1c-0.4-0.7-0.7-1.5-1.1-2.2
			c-0.2-0.5-0.4-1-0.6-1.5c-1.3-2.2-2.8-3.5-5-4.8c-0.5-0.3-1-0.4-1.6-0.5c-0.3,0-0.6,0-1-0.1c-0.2-0.1-0.4-0.3-0.6-0.4
			c-0.7-0.5-2.6-1.5-3.2-0.1c-0.3,0.8,0.5,1.7,0.8,2.1c0.2,0.3,0.5,0.6,0.6,1c0.1,0.2,0.1,0.4,0.2,0.7c0.2,0.6,0.4,1.2,0.7,1.7
			c0.1,0.3,0.3,0.6,0.5,0.8c0.1,0.1,0.3,0.2,0.3,0.4c-0.2,0.3-0.2,0.6-0.3,1c-0.5,1.4-0.3,3.2,0.4,4.3c0.2,0.3,0.7,1,1.4,0.8
			c0.6-0.2,0.5-1,0.6-1.6c0-0.1,0-0.3,0.1-0.4c0,0,0,0,0,0c0.2,0.4,0.4,0.7,0.5,1.1c0.4,0.6,1.1,1.3,1.7,1.7
			c0.3,0.2,0.5,0.6,0.9,0.8c0,0,0,0,0,0c0,0,0,0,0,0c-0.1-0.1-0.2-0.2-0.3-0.3c-0.2-0.2-0.5-0.5-0.7-0.8c-0.5-0.7-1-1.5-1.4-2.4
			c-0.2-0.4-0.4-0.8-0.6-1.2c-0.1-0.2-0.1-0.4-0.2-0.5c-0.2,0.3-0.5,0.5-0.6,0.9c-0.2,0.6-0.3,1.2-0.4,1.9c-0.1,0,0,0-0.1,0
			c-0.4-0.1-0.6-0.5-0.7-0.9c-0.4-0.9-0.5-2.4-0.1-3.4c0.1-0.3,0.5-1.1,0.3-1.4c-0.1-0.3-0.3-0.4-0.5-0.6c-0.2-0.2-0.3-0.5-0.5-0.8
			c-0.3-0.7-0.5-1.5-0.8-2.2c-0.2-0.3-0.4-0.7-0.6-1c-0.2-0.3-0.5-0.6-0.7-1c-0.1-0.1-0.2-0.4-0.1-0.5c0-0.1,0.1-0.1,0.2-0.2
			c0.2-0.1,0.6,0,0.8,0.1c0.5,0.2,0.9,0.4,1.3,0.6c0.2,0.1,0.4,0.4,0.6,0.4c0.1,0,0.2,0,0.3,0c0.4,0.1,0.9,0,1.3,0.1
			c0.7,0.2,1.3,0.5,1.9,0.9c1.7,1.1,3.1,2.6,4,4.4c0.2,0.3,0.2,0.6,0.4,0.9c0.3,0.6,0.6,1.3,0.9,1.9c0.3,0.6,0.5,1.2,0.9,1.7
			c0.2,0.3,1,0.4,1.3,0.6c0.2,0.1,0.6,0.2,0.9,0.4c0.4,0.3,0.9,0.6,1.3,0.9C-193,25.2-192.4,25.5-192.4,25.8z"/>
	</g>
	<g transform="translate(272.504, 24.8027)">
		<path class="st2" d="M-236.4-14.9c-0.2,0-0.4,0-0.5,0.1c0,0,0,0,0,0c0,0,0,0,0,0c0.1,0.2,0.3,0.3,0.4,0.5c0.1,0.2,0.2,0.4,0.3,0.6
			c0,0,0,0,0,0c0.2-0.1,0.3-0.3,0.3-0.6c-0.1-0.1-0.1-0.2-0.1-0.3C-236.1-14.7-236.3-14.8-236.4-14.9z"/>
	</g>
	<g transform="translate(371.609, 165.56)">
		<path class="st3" d="M-323.1-136c0,0.7,0.6,1.2,1.2,1.2c0.7,0,1.2-0.5,1.2-1.2c0-0.7-0.6-1.2-1.2-1.2
			C-322.5-137.2-323.1-136.7-323.1-136z M-320.9-136c0,0.6-0.4,1-1,1c-0.5,0-1-0.4-1-1c0-0.6,0.4-1,1-1
			C-321.3-136.9-320.9-136.5-320.9-136z M-321.5-135.3h0.3l-0.4-0.6c0.2,0,0.4-0.1,0.4-0.4c0-0.3-0.2-0.4-0.5-0.4h-0.6v1.4h0.2v-0.6
			h0.2L-321.5-135.3z M-322.1-136.1v-0.4h0.3c0.1,0,0.3,0,0.3,0.2c0,0.2-0.2,0.2-0.3,0.2H-322.1z"/>
	</g>
</g>
</svg>
