<?xml version="1.0" encoding="utf-8"?>
<!-- Generator: Adobe Illustrator 25.4.1, SVG Export Plug-In . SVG Version: 6.00 Build 0)  -->
<svg version="1.1" id="Capa_1" xmlns="http://www.w3.org/2000/svg" xmlns:xlink="http://www.w3.org/1999/xlink" x="0px" y="0px"
	 viewBox="0 0 141.7 137.7" style="enable-background:new 0 0 141.7 137.7;" xml:space="preserve">
<style type="text/css">
	.st0{fill:#120F5B;}
</style>
<g>
	<path class="st0" d="M0,115.6c0-31.2,0-62.4,0-93.6c0.1-0.2,0.2-0.4,0.2-0.6C2.1,8.8,12.3-0.2,25.1-0.2c30.5-0.1,60.9-0.1,91.4,0
		c11.9,0,21.7,7.8,24.5,19.2c0.3,1.1,0.5,2.2,0.7,3.4c0,31,0,62,0,93c-0.1,0.3-0.2,0.6-0.2,0.9c-1.9,12.7-12,21.6-24.9,21.7
		c-30.5,0.1-60.9,0.1-91.4,0c-11.9,0-21.7-7.9-24.5-19.2C0.4,117.7,0.2,116.7,0,115.6z M44.7,77.7c1.2,0,2.1,0,3.1,0
		c3.4-0.2,6.9-0.1,10.3-0.6c10.4-1.5,18.5-8.6,18.4-20.9c-0.1-8.6-3.7-15-11.6-18.7c-3-1.4-6.2-2.3-9.5-2.4
		c-7.5-0.1-15,0.1-22.5,0.1c-1.1,0-1,0.7-1,1.4c0,19.8,0,39.6,0,59.4c0,1.1,0.4,1.4,1.5,1.4c3.3-0.1,6.6-0.1,9.8,0
		c1.2,0,1.6-0.4,1.6-1.6c0-5.4,0-10.9,0-16.3C44.7,79,44.7,78.4,44.7,77.7z M83,83.9c-0.1,0.7-0.1,1.2-0.1,1.6c0,2.9,0,5.7,0,8.6
		c0,1.2,0.4,1.9,1.5,2.3c4.9,1.9,10.1,2.5,15.3,2.2c3.2-0.1,6.2-0.7,9.1-2.1c4.9-2.3,7.8-6.1,8.3-11.5c0.5-5.8-1.8-10.2-6.9-12.9
		c-3.1-1.7-6.4-2.9-9.6-4.5c-1.4-0.7-2.9-1.3-4-2.3c-0.7-0.5-1.1-1.7-1.1-2.6c0-1.2,1-1.9,2.1-2.2c0.5-0.1,1-0.3,1.5-0.3
		c4.8-0.4,9.5,0.4,13.9,2.4c1.4,0.7,1.9,0.4,1.9-1.1c0-2.7,0-5.4,0-8.2c0-1.3-0.5-1.9-1.7-2.3c-4.5-1.4-9.1-1.7-13.8-1.4
		c-3.1,0.2-6.1,0.9-8.9,2.4c-8.9,4.7-10.6,17.7-0.9,23.6c3.4,2.1,7.2,3.4,10.8,5.2c1.1,0.6,2.3,1.2,3.2,2c1.5,1.4,1.1,3.4-0.8,4.3
		c-0.6,0.3-1.3,0.5-2,0.6c-4.9,0.7-9.6-0.3-14.2-2.1C85.4,85.2,84.3,84.6,83,83.9z"/>
	<path class="st0" d="M44.8,66.8c0-6.9,0-13.4,0-20.2c2.7,0,5.4-0.2,8.1,0.1c1.9,0.2,3.9,0.6,5.7,1.4c3.3,1.4,4.8,4.2,5,7.7
		c0.2,3.8-0.9,7-4.5,8.8c-1.5,0.7-3.1,1.4-4.7,1.6C51.4,66.5,48.2,66.6,44.8,66.8z"/>
</g>
</svg>
