<?xml version="1.0" encoding="utf-8"?>
<!-- Generator: Adobe Illustrator 25.4.1, SVG Export Plug-In . SVG Version: 6.00 Build 0)  -->
<svg version="1.1" id="Capa_1" xmlns="http://www.w3.org/2000/svg" xmlns:xlink="http://www.w3.org/1999/xlink" x="0px" y="0px"
	 viewBox="0 0 141.7 137.7" style="enable-background:new 0 0 141.7 137.7;" xml:space="preserve">
<style type="text/css">
	.st0{fill:#330000;}
</style>
<g>
	<g>
		<path class="st0" d="M49.8,75.6c5.3,0,10.4,0,15.7,0c-2.7-9.7-5.4-19.3-8.1-28.8C54.9,56.3,52.4,65.9,49.8,75.6z"/>
		<path class="st0" d="M141,19c-2.8-11.4-12.6-19.2-24.5-19.2c-30.5-0.1-60.9-0.1-91.4,0c-12.9,0-23,9.1-24.9,21.7
			c0,0.2-0.2,0.4-0.2,0.6c0,31.2,0,62.4,0,93.6c0.2,1,0.4,2,0.7,3.1c2.8,11.4,12.5,19.2,24.5,19.2c30.5,0.1,60.9,0.1,91.4,0
			c12.9,0,23-9,24.9-21.7c0-0.3,0.2-0.6,0.2-0.9c0-31,0-62,0-93C141.5,21.2,141.3,20.1,141,19z M74.3,106.3c-0.4,0-0.9-0.7-1-1.1
			c-1.7-5.3-3.3-10.6-4.8-16c-0.3-1-0.7-1.3-1.8-1.3c-6,0.1-11.9,0-17.9,0c-0.5,0-0.9,0-1.4,0c-1.3,4.7-2.6,9.4-3.9,14.1
			c-0.3,1.2-0.6,2.4-1,3.6c-0.1,0.4-0.6,0.8-1,0.8c-5.2,0-10.4,0-15.6,0c-0.1,0-0.2-0.1-0.4-0.2c7.3-23.9,14.6-47.8,22-71.8
			c0.4,0,0.7-0.1,1-0.1c6.4,0,12.8,0,19.2,0c0.7,0,1.2,0.1,1.5,1c7.3,23.5,14.6,47.1,21.9,70.6c0,0.1,0,0.3,0.1,0.6
			C85.3,106.4,79.8,106.4,74.3,106.3z M114.3,106.4c-4.4-0.1-8.8,0-13.1,0c-0.5,0-0.9,0-1.4,0c0-17.5,0-34.8,0-52.2
			c5.4,0,10.7,0,16.2,0c0,0.5,0,1,0,1.4c0,16.4,0,32.8,0,49.2C115.9,106.1,115.5,106.4,114.3,106.4z M107.6,47.6
			c-4.9,0-8.4-3.4-8.4-8.1c0-4.9,3.7-8.3,8.7-8.2c5.1,0.1,8.6,3.6,8.5,8.4C116.3,44.4,112.6,47.7,107.6,47.6z"/>
	</g>
</g>
</svg>
