<?xml version="1.0" encoding="utf-8"?>
<!-- Generator: Adobe Illustrator 25.4.1, SVG Export Plug-In . SVG Version: 6.00 Build 0)  -->
<svg version="1.1" id="Capa_1" xmlns="http://www.w3.org/2000/svg" xmlns:xlink="http://www.w3.org/1999/xlink" x="0px" y="0px"
	 viewBox="0 0 141.7 137.7" style="enable-background:new 0 0 141.7 137.7;" xml:space="preserve">
<style type="text/css">
	.st0{fill:#49021F;}
	.st1{fill:#FFFFFF;}
</style>
<path class="st0" d="M141,19c-2.8-11.4-12.6-19.2-24.5-19.2c-30.5-0.1-60.9-0.1-91.4,0c-12.9,0-23,9.1-24.9,21.7
	c0,0.2-0.2,0.4-0.2,0.6c0,31.2,0,62.4,0,93.6c0.2,1,0.4,2,0.7,3.1c2.8,11.4,12.5,19.2,24.5,19.2c30.5,0.1,60.9,0.1,91.4,0
	c12.9,0,23-9,24.9-21.7c0-0.3,0.2-0.6,0.2-0.9c0-31,0-62,0-93C141.5,21.2,141.3,20.1,141,19z"/>
<g>
	<path class="st1" d="M94.4,102.5c-0.2-2.3-0.5-4.4-0.7-6.9c-0.7,1-1.3,1.7-1.8,2.4c-5.6,6.4-15.8,7.6-23.2,2.7
		c-5.3-3.5-8.2-8.6-9.4-14.7c-1.5-7.3-0.9-14.5,2.7-21.2c6.1-11.1,18.5-12.7,26.2-8.8c1.5,0.7,2.7,2,4.2,3.1c0-4.1,0-8.3,0-12.5
		c0-4.2,0-8.4,0-12.7c5,0,9.8,0,14.8,0c0,22.8,0,45.6,0,68.5C103.1,102.5,98.9,102.5,94.4,102.5z M92.6,78.2c-0.1,0-0.1,0-0.2,0
		c-0.1-1.5-0.1-3-0.2-4.5c-0.2-3.4-2.6-6.6-5.8-7.7c-3.4-1.2-7.2-0.2-9.5,2.4c-4.3,4.9-4.8,14.8-0.8,20c2.2,2.9,5.3,4,8.9,3.4
		c3.5-0.6,5.8-2.8,6.7-6.2C92.3,83.2,92.4,80.7,92.6,78.2z"/>
	<path class="st1" d="M34.5,37.5c4.9,0,9.7,0,14.6,0c0,21.7,0,43.3,0,65c-4.9,0-9.7,0-14.6,0C34.5,80.8,34.5,59.2,34.5,37.5z"/>
</g>
</svg>
